<mxfile host="app.diagrams.net" modified="2021-05-02T20:35:38.118Z" agent="5.0 (Windows NT 10.0; Win64; x64) AppleWebKit/537.36 (KHTML, like Gecko) Chrome/87.0.4280.141 Safari/537.36 OPR/73.0.3856.438" etag="V1ofgseeEAu736ejIckG" version="14.6.6" type="github">
  <diagram id="U8JggGLhvJ9aqmreAP9c" name="Page-1">
    <mxGraphModel dx="1381" dy="833" grid="1" gridSize="10" guides="1" tooltips="1" connect="1" arrows="1" fold="1" page="1" pageScale="1" pageWidth="827" pageHeight="1169" math="0" shadow="0">
      <root>
        <mxCell id="0" />
        <mxCell id="1" parent="0" />
        <mxCell id="ALpy0EQL_1M9ovdJY1jj-3" style="edgeStyle=orthogonalEdgeStyle;rounded=0;orthogonalLoop=1;jettySize=auto;html=1;" edge="1" parent="1" source="ALpy0EQL_1M9ovdJY1jj-1" target="ALpy0EQL_1M9ovdJY1jj-2">
          <mxGeometry relative="1" as="geometry" />
        </mxCell>
        <mxCell id="ALpy0EQL_1M9ovdJY1jj-1" value="start" style="ellipse;whiteSpace=wrap;html=1;" vertex="1" parent="1">
          <mxGeometry x="354" y="20" width="120" height="80" as="geometry" />
        </mxCell>
        <mxCell id="ALpy0EQL_1M9ovdJY1jj-5" style="edgeStyle=orthogonalEdgeStyle;rounded=0;orthogonalLoop=1;jettySize=auto;html=1;" edge="1" parent="1" source="ALpy0EQL_1M9ovdJY1jj-2" target="ALpy0EQL_1M9ovdJY1jj-4">
          <mxGeometry relative="1" as="geometry" />
        </mxCell>
        <mxCell id="ALpy0EQL_1M9ovdJY1jj-2" value="input: licznik" style="shape=parallelogram;perimeter=parallelogramPerimeter;whiteSpace=wrap;html=1;fixedSize=1;" vertex="1" parent="1">
          <mxGeometry x="354" y="140" width="120" height="60" as="geometry" />
        </mxCell>
        <mxCell id="ALpy0EQL_1M9ovdJY1jj-7" style="edgeStyle=orthogonalEdgeStyle;rounded=0;orthogonalLoop=1;jettySize=auto;html=1;" edge="1" parent="1" source="ALpy0EQL_1M9ovdJY1jj-4" target="ALpy0EQL_1M9ovdJY1jj-6">
          <mxGeometry relative="1" as="geometry" />
        </mxCell>
        <mxCell id="ALpy0EQL_1M9ovdJY1jj-4" value="input: mianownik" style="shape=parallelogram;perimeter=parallelogramPerimeter;whiteSpace=wrap;html=1;fixedSize=1;" vertex="1" parent="1">
          <mxGeometry x="354" y="240" width="120" height="60" as="geometry" />
        </mxCell>
        <mxCell id="ALpy0EQL_1M9ovdJY1jj-9" value="yes" style="edgeStyle=orthogonalEdgeStyle;rounded=0;orthogonalLoop=1;jettySize=auto;html=1;" edge="1" parent="1" source="ALpy0EQL_1M9ovdJY1jj-6" target="ALpy0EQL_1M9ovdJY1jj-8">
          <mxGeometry relative="1" as="geometry" />
        </mxCell>
        <mxCell id="ALpy0EQL_1M9ovdJY1jj-13" value="no" style="edgeStyle=orthogonalEdgeStyle;rounded=0;orthogonalLoop=1;jettySize=auto;html=1;" edge="1" parent="1" source="ALpy0EQL_1M9ovdJY1jj-6" target="ALpy0EQL_1M9ovdJY1jj-12">
          <mxGeometry relative="1" as="geometry" />
        </mxCell>
        <mxCell id="ALpy0EQL_1M9ovdJY1jj-6" value="mianownik = 0" style="rhombus;whiteSpace=wrap;html=1;" vertex="1" parent="1">
          <mxGeometry x="374" y="340" width="80" height="80" as="geometry" />
        </mxCell>
        <mxCell id="ALpy0EQL_1M9ovdJY1jj-11" style="edgeStyle=orthogonalEdgeStyle;rounded=0;orthogonalLoop=1;jettySize=auto;html=1;" edge="1" parent="1" source="ALpy0EQL_1M9ovdJY1jj-8" target="ALpy0EQL_1M9ovdJY1jj-10">
          <mxGeometry relative="1" as="geometry" />
        </mxCell>
        <mxCell id="ALpy0EQL_1M9ovdJY1jj-8" value="output: dzielenie przez 0" style="shape=parallelogram;perimeter=parallelogramPerimeter;whiteSpace=wrap;html=1;fixedSize=1;" vertex="1" parent="1">
          <mxGeometry x="220" y="350" width="120" height="60" as="geometry" />
        </mxCell>
        <mxCell id="ALpy0EQL_1M9ovdJY1jj-10" value="stop" style="ellipse;whiteSpace=wrap;html=1;" vertex="1" parent="1">
          <mxGeometry x="220" y="450" width="120" height="80" as="geometry" />
        </mxCell>
        <mxCell id="ALpy0EQL_1M9ovdJY1jj-15" style="edgeStyle=orthogonalEdgeStyle;rounded=0;orthogonalLoop=1;jettySize=auto;html=1;" edge="1" parent="1" source="ALpy0EQL_1M9ovdJY1jj-12" target="ALpy0EQL_1M9ovdJY1jj-14">
          <mxGeometry relative="1" as="geometry" />
        </mxCell>
        <mxCell id="ALpy0EQL_1M9ovdJY1jj-12" value="result = licznik / mianownik" style="rounded=0;whiteSpace=wrap;html=1;" vertex="1" parent="1">
          <mxGeometry x="490" y="350" width="120" height="60" as="geometry" />
        </mxCell>
        <mxCell id="ALpy0EQL_1M9ovdJY1jj-17" style="edgeStyle=orthogonalEdgeStyle;rounded=0;orthogonalLoop=1;jettySize=auto;html=1;" edge="1" parent="1" source="ALpy0EQL_1M9ovdJY1jj-14" target="ALpy0EQL_1M9ovdJY1jj-16">
          <mxGeometry relative="1" as="geometry" />
        </mxCell>
        <mxCell id="ALpy0EQL_1M9ovdJY1jj-14" value="output: result" style="shape=parallelogram;perimeter=parallelogramPerimeter;whiteSpace=wrap;html=1;fixedSize=1;" vertex="1" parent="1">
          <mxGeometry x="490" y="450" width="120" height="60" as="geometry" />
        </mxCell>
        <mxCell id="ALpy0EQL_1M9ovdJY1jj-16" value="stop" style="ellipse;whiteSpace=wrap;html=1;" vertex="1" parent="1">
          <mxGeometry x="490" y="545" width="120" height="80" as="geometry" />
        </mxCell>
      </root>
    </mxGraphModel>
  </diagram>
</mxfile>
